<svg width="45" height="45" viewBox="0 0 45 45" fill="none" xmlns="http://www.w3.org/2000/svg">
<path d="M37.8947 11.8421V18.9237C37.8947 18.9237 33.1816 18.9474 33.1579 18.9237V11.8421H26.0526C26.0526 11.8421 26.0763 7.12895 26.0526 7.10526H33.1579V0H37.8947V7.10526H45V11.8421H37.8947ZM30.7895 21.3158V14.2105H23.6842V7.10526H4.73684C2.13158 7.10526 0 9.23684 0 11.8421V40.2632C0 42.8684 2.13158 45 4.73684 45H33.1579C35.7632 45 37.8947 42.8684 37.8947 40.2632V21.3158H30.7895ZM4.73684 40.2632L11.8421 30.7895L16.5789 37.8947L23.6842 28.4211L33.1579 40.2632H4.73684Z" fill="#699472"/>
</svg>
